<svg width="64" height="64" viewBox="0 0 64 64" fill="none" xmlns="http://www.w3.org/2000/svg">
<g clip-path="url(#clip0)">
<path d="M42.047 40.1472C42.047 41.6203 42.0614 43.0934 42.0428 44.5666C42.026 45.8941 41.7617 47.1723 41.1396 48.3571C40.3214 49.9144 39.0625 50.9477 37.3684 51.4242C35.8178 51.8585 34.2471 51.8636 32.7007 51.4069C30.6425 50.7995 29.2961 49.4237 28.5759 47.4194C28.2415 46.48 28.0715 45.49 28.0734 44.4929C28.0641 41.4141 28.0705 38.3353 28.0637 35.2568C28.0637 35.0809 28.1226 35.0493 28.2792 35.0531C28.6858 35.0628 29.0932 35.0662 29.4998 35.0531C29.6829 35.0468 29.7145 35.1116 29.7145 35.2792C29.7094 38.2254 29.7083 41.1716 29.7111 44.1179C29.7111 44.9984 29.802 45.8663 30.0781 46.7081C30.6951 48.5886 31.9776 49.7069 33.9297 50.0302C35.104 50.2246 36.2636 50.1518 37.381 49.701C38.4855 49.249 39.2692 48.4628 39.7742 47.3916C40.2246 46.4353 40.4001 45.4159 40.4056 44.3692C40.4157 41.3469 40.4157 38.3243 40.4056 35.3015C40.4056 35.0969 40.4565 35.0401 40.6581 35.0489C41.0369 35.0662 41.4157 35.0658 41.7945 35.0489C42.0003 35.0397 42.0647 35.0872 42.063 35.3078C42.0525 36.9206 42.0576 38.5339 42.0576 40.148L42.047 40.1472Z" fill="#333333"/>
<path d="M8.3458 51.7254C5.04095 51.7321 2.0261 49.7325 0.719654 46.6713C-0.739999 43.2508 0.057591 39.3832 2.77782 36.8541C4.19833 35.5329 5.90041 34.8275 7.84031 34.71C9.61689 34.6019 11.2798 34.9697 12.7908 35.9357C13.6671 36.4955 14.4045 37.2131 15.1057 37.9707C15.168 38.038 15.1672 38.081 15.1007 38.1424C14.7598 38.4555 14.4197 38.7691 14.0847 39.0886C13.9735 39.1946 13.926 39.0991 13.8692 39.0364C13.4894 38.6137 13.0787 38.2198 12.6406 37.8579C11.223 36.6987 9.59837 36.1743 7.77591 36.3233C6.38425 36.4337 5.06411 36.9852 4.00757 37.8977C2.95104 38.8101 2.21323 40.036 1.90152 41.3967C1.35057 43.7537 1.79798 45.9129 3.36917 47.7821C4.47822 49.1011 5.90883 49.8806 7.63154 50.0734C9.89931 50.3259 11.7605 49.4947 13.3186 47.8898C13.5383 47.6638 13.7496 47.4268 13.9559 47.1903C14.04 47.0927 14.0922 47.059 14.2012 47.1659C14.5119 47.4702 14.8326 47.7627 15.1533 48.0573C15.2236 48.1217 15.2589 48.1668 15.1811 48.2611C14.1474 49.5103 12.9525 50.549 11.4255 51.1576C10.4457 51.5456 9.39953 51.7385 8.3458 51.7254Z" fill="#333333"/>
<path d="M19.9109 37.8849C20.2477 37.4788 20.5595 37.0747 20.9211 36.7094C22.028 35.5864 23.3568 34.9101 24.9267 34.7257C25.3104 34.6847 25.6965 34.6707 26.0821 34.6836C26.1915 34.6861 26.2273 34.7215 26.226 34.8305C26.2214 35.272 26.2185 35.7144 26.226 36.1555C26.229 36.307 26.1486 36.3062 26.0417 36.3028C25.3872 36.2826 24.7369 36.3188 24.1123 36.5343C23.0786 36.8895 22.2545 37.5347 21.5844 38.3816C20.7231 39.4617 20.1675 40.7531 19.9753 42.1212C19.9305 42.4274 19.9079 42.7364 19.908 43.0459C19.9097 45.7312 19.9097 48.4166 19.908 51.1022C19.908 51.3678 19.908 51.3678 19.634 51.3678C19.2623 51.3678 18.8899 51.3518 18.5195 51.3737C18.2939 51.3871 18.2606 51.3063 18.2606 51.1035C18.2665 46.9737 18.2681 42.8437 18.2653 38.7137C18.2653 37.5638 18.2678 36.4139 18.2619 35.2623C18.2619 35.1045 18.2909 35.0418 18.4664 35.0477C18.8798 35.062 19.2934 35.062 19.7072 35.0477C19.8823 35.0418 19.9126 35.1045 19.9109 35.2615C19.9042 36.0679 19.908 36.8744 19.908 37.6808L19.9109 37.8849Z" fill="#333333"/>
<path d="M51.3908 35.0316C51.3908 32.2692 51.3894 29.5066 51.3866 26.7438C51.3866 26.5645 51.4224 26.5081 51.6147 26.5085C54.5806 26.5153 57.5468 26.5153 60.5132 26.5085C60.6976 26.5085 60.754 26.5506 60.7464 26.7392C60.7317 27.1243 60.7321 27.5107 60.7464 27.8958C60.7531 28.0743 60.6972 28.1134 60.525 28.113C58.1119 28.1077 55.6998 28.1064 53.2886 28.1092C52.9872 28.1092 52.9873 28.1092 52.9873 28.408C52.9873 33.3653 52.9873 38.3226 52.9873 43.2799C52.9873 43.5791 53.0205 43.5442 52.7145 43.5454C52.3496 43.5454 51.9847 43.5353 51.6202 43.5501C51.4363 43.5577 51.3862 43.508 51.3866 43.3198C51.3933 40.8658 51.3949 38.4117 51.3912 35.9576L51.3908 35.0316Z" fill="#333333"/>
<path d="M43.1195 26.5127C45.1465 26.5127 47.1731 26.5161 49.1997 26.5077C49.4013 26.5077 49.4388 26.57 49.4388 26.7556C49.4337 30.8161 49.4337 34.8763 49.4388 38.9362C49.4388 39.1134 49.4068 39.1829 49.2111 39.1744C48.8264 39.1576 48.4396 39.1584 48.0545 39.1744C47.8617 39.1824 47.823 39.1155 47.823 38.9358C47.828 35.4365 47.8293 31.9372 47.8268 28.4379C47.8268 28.1092 47.8268 28.1092 47.49 28.1092C44.0107 28.1092 40.5323 28.1107 37.0549 28.1138C36.8596 28.1138 36.7846 28.0785 36.7956 27.8655C36.815 27.4867 36.8103 27.1079 36.7956 26.7291C36.7893 26.5519 36.8461 26.5085 37.0187 26.5094C39.0521 26.515 41.0857 26.5161 43.1195 26.5127Z" fill="#333333"/>
<path d="M57.6974 24.5624C55.6708 24.5624 53.6442 24.5594 51.618 24.567C51.4277 24.567 51.3878 24.514 51.3882 24.3321C51.3935 20.3005 51.3935 16.2688 51.3882 12.237C51.3882 12.0598 51.4181 11.9895 51.615 12.0013C52.0136 12.0248 52.4147 12.0261 52.8133 12.0248C52.9489 12.0248 52.9931 12.0619 52.9914 12.2012C52.9838 12.7904 52.988 13.3797 52.988 13.9689C52.988 16.8857 52.9865 19.8025 52.9834 22.7193C52.9834 22.9234 53.0356 22.9739 53.2384 22.9718C56.7373 22.9651 60.2366 22.9693 63.7355 22.9617C63.9519 22.9617 64.0091 23.0164 63.9986 23.2277C63.9805 23.5985 63.9847 23.971 63.9986 24.3422C64.0049 24.5165 63.9565 24.5657 63.778 24.5649C61.7506 24.5598 59.7248 24.5624 57.6974 24.5624Z" fill="#333333"/>
<path d="M44.7011 24.5615C43.2145 24.5615 41.7279 24.5577 40.2417 24.5665C40.0426 24.5665 39.9942 24.508 40.001 24.3195C40.0149 23.9344 40.0132 23.548 40.001 23.1629C39.9963 23.0042 40.0431 22.9642 40.2 22.9646C41.911 22.9701 43.6215 22.968 45.3324 22.968C46.09 22.968 46.8476 22.9612 47.6052 22.973C47.7942 22.976 47.8371 22.9213 47.8367 22.7386C47.8304 20.3336 47.8367 17.9286 47.8266 15.5241C47.8266 15.3035 47.8877 15.256 48.0939 15.2652C48.4786 15.2829 48.865 15.2787 49.2505 15.2686C49.402 15.2648 49.4349 15.3153 49.4349 15.4588C49.4312 18.4245 49.4312 21.3902 49.4349 24.3561C49.4349 24.5244 49.3881 24.5665 49.2244 24.5665C47.7159 24.559 46.2083 24.5615 44.7011 24.5615Z" fill="#333333"/>
</g>
<defs>
<clipPath id="clip0">
<rect width="64" height="39.7503" fill="white" transform="translate(0 12)"/>
</clipPath>
</defs>
</svg>
