<svg width="64" height="64" viewBox="0 0 64 64" fill="none" xmlns="http://www.w3.org/2000/svg">
<g clip-path="url(#clip0)">
<path d="M48.1794 11C48.1794 11.9517 48.201 12.9033 48.1691 13.854C48.156 14.2459 48.2798 14.3884 48.6585 14.4653C51.417 15.0132 53.9682 16.319 56.0259 18.2362C59.0192 20.9811 60.8261 24.7837 61.0636 28.8381C61.3011 32.8926 59.9506 36.8801 57.2982 39.9558C57.0544 40.237 56.9147 40.3383 56.5894 40.0223C55.604 39.066 54.5867 38.1406 53.5573 37.2312C53.2291 36.9406 53.1701 36.7737 53.4832 36.394C54.5368 35.1295 55.2757 33.6333 55.6394 32.0281C56.003 30.4229 55.9811 28.7544 55.5754 27.1593C55.1697 25.5642 54.3917 24.088 53.3052 22.8516C52.2188 21.6153 50.8548 20.654 49.3251 20.0466C48.1794 19.5834 48.1794 19.5834 48.1794 20.7892C48.1794 24.8647 48.1719 28.9403 48.1888 33.0159C48.1888 33.4547 48.0951 33.6057 47.6263 33.5944C46.2518 33.5616 44.8764 33.5681 43.501 33.5944C43.1007 33.601 43.0106 33.4697 43.0116 33.09C43.0235 28.7772 43.026 24.4672 43.0191 20.16C43.0191 19.5769 43.0191 19.5769 42.4612 19.7428C35.572 21.7895 32.7856 30.0673 37.0356 35.8961C37.2943 36.2505 37.3056 36.4249 36.9418 36.7052C35.8449 37.5575 34.7713 38.4416 33.7063 39.3304C33.4316 39.5601 33.29 39.5723 33.05 39.2685C28.3125 33.1744 28.8628 24.2534 34.311 18.7921C36.6305 16.466 39.3917 14.9913 42.6159 14.3856C42.9328 14.3265 43.0219 14.1981 43.0172 13.899C43.0022 12.9324 43.0116 11.9648 43.0116 10.9982L48.1794 11Z" fill="#333333"/>
<path d="M16.172 29.5385C13.9856 29.5385 11.7983 29.5479 9.60904 29.5301C9.23401 29.5301 9.18057 29.6173 9.27621 29.968C10.3441 33.8767 13.9931 36.9866 18.0134 37.4394C20.8261 37.7572 23.3678 37.0841 25.6329 35.3899C25.8758 35.208 25.9845 35.2277 26.1702 35.4611C27.0727 36.5975 27.99 37.7225 28.9219 38.8364C29.1526 39.112 29.1498 39.247 28.8525 39.4795C23.1081 43.9799 14.5903 43.7305 9.09994 38.8983C6.36663 36.495 4.6562 33.5085 3.96866 29.9389C3.90021 29.5807 3.75864 29.5264 3.45018 29.5329C2.65325 29.5498 1.85632 29.5254 1.06033 29.5451C0.746248 29.5536 0.665617 29.4429 0.667492 29.142C0.680618 27.6747 0.683431 26.2064 0.667492 24.7354C0.662804 24.4119 0.780937 24.3388 1.07252 24.3435C1.88445 24.3566 2.69732 24.3313 3.51019 24.3557C3.8449 24.366 3.95834 24.2488 4.03428 23.9319C5.53157 17.6259 9.40184 13.5118 15.6816 11.9292C20.8289 10.6316 25.5017 11.8861 29.5895 15.2988C29.8707 15.5313 29.8829 15.6645 29.626 15.9336C28.6366 16.973 27.664 18.029 26.7083 19.1016C26.4777 19.3575 26.353 19.3716 26.082 19.1419C20.4267 14.3491 11.7786 16.7652 9.41871 23.7885C9.2312 24.351 9.2312 24.351 9.84906 24.351C14.1122 24.351 18.3809 24.3576 22.6402 24.3407C23.0734 24.3407 23.1878 24.4588 23.1793 24.8854C23.1531 26.2918 23.1578 27.6981 23.1793 29.1045C23.185 29.457 23.0856 29.5517 22.734 29.5498C20.5448 29.531 18.3584 29.5385 16.172 29.5385Z" fill="#333333"/>
<path d="M43.6107 46.6584C44.5014 45.7714 46.0109 45.9299 46.4366 46.7615C46.9475 46.049 47.6507 45.9561 48.4308 46.1343C48.953 46.2543 49.3027 46.5824 49.3908 47.1056C49.5783 48.2363 49.448 49.3792 49.4715 50.5165C49.4715 50.6712 49.3777 50.7396 49.2352 50.7434C49.0789 50.7381 48.9224 50.741 48.7664 50.7518C48.4223 50.7921 48.2976 50.658 48.3033 50.3065C48.322 49.5264 48.3126 48.7454 48.3033 47.9625C48.3033 47.2856 48.081 46.9987 47.5719 46.9715C46.9494 46.9397 46.5875 47.2528 46.5603 47.9288C46.5294 48.7079 46.5209 49.4908 46.5547 50.2727C46.5744 50.7415 46.3325 50.7659 45.98 50.7555C45.6527 50.7462 45.3677 50.7855 45.3893 50.2868C45.4259 49.4767 45.4062 48.6638 45.3959 47.8491C45.3874 47.1619 45.243 46.9903 44.7058 46.9687C44.0711 46.9425 43.6857 47.2322 43.6585 47.836C43.6229 48.6301 43.6107 49.4298 43.6501 50.223C43.6764 50.7424 43.412 50.7462 43.0257 50.7537C42.6178 50.7621 42.4453 50.6702 42.4575 50.2136C42.4903 49.0285 42.4669 47.8416 42.4706 46.6556C42.4706 46.4062 42.3863 46.0602 42.826 46.124C43.1457 46.1746 43.6979 45.8446 43.6107 46.6584Z" fill="#333333"/>
<path d="M21.0662 46.6987C21.7609 45.9946 22.4772 45.9731 23.2432 46.169C23.5526 46.2487 23.6932 46.6725 23.9238 46.664C24.1545 46.6556 24.3317 46.2806 24.6233 46.1728C25.9012 45.704 26.9147 46.3781 26.9184 47.7207C26.9184 48.5945 26.8987 49.4692 26.9259 50.3459C26.9409 50.8437 26.6165 50.7462 26.3353 50.75C26.054 50.7537 25.7671 50.8146 25.784 50.3506C25.813 49.5564 25.7952 48.7567 25.7896 47.9635C25.7849 47.2941 25.5627 47.0034 25.0517 46.9763C24.4545 46.9444 24.072 47.2463 24.0354 47.8829C23.9918 48.6619 23.9881 49.4427 24.0242 50.2221C24.0439 50.6768 23.8657 50.7696 23.4616 50.7621C23.081 50.7546 22.8541 50.7237 22.8775 50.2399C22.9169 49.4149 22.8878 48.5861 22.8775 47.7591C22.8775 47.401 22.8288 47.0634 22.3731 46.9884C21.8293 46.8994 21.3971 47.0709 21.2162 47.4769C21.1231 47.7097 21.0809 47.9597 21.0924 48.2101C21.0924 48.8814 21.0624 49.5546 21.1027 50.223C21.1308 50.6778 20.9508 50.8053 20.5402 50.7528C20.4314 50.7434 20.322 50.7415 20.213 50.7471C20.0358 50.7471 19.9655 50.6581 19.9655 50.4865C19.9655 49.1277 19.9655 47.7697 19.9655 46.4128C19.9655 46.2159 20.0423 46.1231 20.2411 46.1315C20.366 46.14 20.4913 46.14 20.6161 46.1315C20.9508 46.0874 21.1758 46.1653 21.0662 46.6987Z" fill="#333333"/>
<path d="M6.32563 46.6669C6.93035 46.0593 7.60259 45.9937 8.3292 46.1109C8.96768 46.214 9.32864 46.5872 9.45427 47.2013C9.60237 47.922 9.61668 48.6637 9.49646 49.3896C9.2827 50.7106 7.76197 51.3022 6.67159 50.4959C6.59939 50.4425 6.53001 50.3834 6.36313 50.2503C6.36313 50.9375 6.37063 51.5347 6.35844 52.132C6.35844 52.3195 6.46626 52.6008 6.22999 52.6729C5.91409 52.7688 5.57642 52.7655 5.26243 52.6636C5.13304 52.6214 5.16867 52.4442 5.16867 52.3232C5.16867 50.3881 5.16867 48.452 5.16211 46.5159C5.16211 46.2018 5.28212 46.0922 5.57651 46.1231C5.90653 46.1587 6.37532 45.944 6.32563 46.6669ZM6.37532 48.4342C6.34784 48.7613 6.38284 49.0906 6.47845 49.4046C6.66596 49.9399 7.12818 49.9052 7.5679 49.8959C7.96449 49.8884 8.26357 49.7449 8.3442 49.3108C8.4362 48.7744 8.44443 48.2269 8.36858 47.6879C8.30951 47.2191 8.05074 47.0138 7.59977 46.9772C6.71003 46.906 6.40438 47.1704 6.38094 48.0629C6.37532 48.1717 6.37532 48.2804 6.37532 48.4342Z" fill="#333333"/>
<path d="M40.0509 48.6564C39.7227 48.6564 39.3946 48.6414 39.0683 48.662C38.8724 48.6751 38.5733 48.5382 38.5133 48.8392C38.4467 49.1739 38.4542 49.5395 38.7655 49.7843C39.2577 50.1705 40.1718 49.9718 40.4653 49.4186C40.5487 49.2658 41.2228 49.1514 41.4554 49.2658C41.7151 49.3933 41.5904 49.6136 41.5491 49.7983C41.4638 50.2202 41.1797 50.4884 40.7916 50.6187C39.9404 50.9 39.021 50.898 38.1711 50.6131C37.796 50.4959 37.5851 50.2099 37.4904 49.8396C37.262 48.9603 37.2482 48.0391 37.4501 47.1534C37.5823 46.5637 37.9845 46.2581 38.5527 46.1484C39.1515 46.0329 39.7664 46.0285 40.3668 46.1353C40.9922 46.2459 41.3869 46.5881 41.4919 47.2172C41.5519 47.5697 41.5641 47.9297 41.6016 48.2851C41.6316 48.5757 41.4929 48.6695 41.2172 48.6601C40.8309 48.6451 40.4409 48.6564 40.0509 48.6564ZM39.508 47.9326C39.6642 47.9419 39.8209 47.9404 39.9768 47.9279C40.1531 47.9035 40.4362 48.0488 40.4606 47.7319C40.4812 47.4572 40.4606 47.1384 40.14 47.0194C39.7276 46.8619 39.2716 46.8619 38.8592 47.0194C38.5423 47.1375 38.5048 47.4338 38.5255 47.7216C38.5498 48.0526 38.8245 47.9091 38.9942 47.9316C39.1653 47.9432 39.3369 47.9435 39.508 47.9326Z" fill="#333333"/>
<path d="M2.7095 48.6591C2.2876 48.6591 1.8657 48.6591 1.44473 48.6591C1.26472 48.6591 1.1269 48.7079 1.15221 48.9217C1.1944 49.2714 1.15221 49.6867 1.56193 49.8461C1.78543 49.9416 2.02714 49.9871 2.27008 49.9794C2.51303 49.9716 2.75133 49.9107 2.96827 49.8011C2.99044 49.7915 3.01028 49.7772 3.02646 49.7593C3.04263 49.7413 3.05476 49.7201 3.06203 49.697C3.09484 49.1889 3.45768 49.2376 3.80458 49.2442C4.32024 49.2536 4.36712 49.3192 4.24148 49.8198C4.10741 50.3402 3.7202 50.583 3.24392 50.7012C2.54149 50.8648 1.81064 50.8629 1.10908 50.6955C0.527793 50.5699 0.222147 50.1902 0.119952 49.6342C-0.0331 48.8666 -0.0391448 48.077 0.102139 47.3072C0.239023 46.6124 0.580296 46.2759 1.27222 46.1437C1.85684 46.0338 2.45648 46.0303 3.04234 46.1333C3.64426 46.2365 4.01928 46.5543 4.17492 47.159C4.52557 48.5185 4.43181 48.6591 3.08453 48.6591H2.7095ZM2.19291 47.9325C2.34905 47.9433 2.50579 47.9417 2.66169 47.9278C2.83514 47.8997 3.13047 48.061 3.14547 47.7403C3.16047 47.4713 3.15578 47.1403 2.83326 47.0203C2.40756 46.8504 1.93217 46.8544 1.50942 47.0315C1.20284 47.1637 1.17471 47.4778 1.2169 47.7581C1.25909 48.0385 1.51411 47.9091 1.68568 47.9278C1.85457 47.9381 2.02386 47.9397 2.19291 47.9325Z" fill="#333333"/>
<path d="M53.1074 48.6592C52.6865 48.6592 52.2636 48.6639 51.8436 48.6592C51.6242 48.6592 51.5492 48.7529 51.5445 48.9695C51.5314 49.5217 51.7123 49.8133 52.168 49.9193C52.8656 50.0805 53.2734 49.9099 53.5331 49.4374C53.7459 49.0511 54.1491 49.2639 54.4585 49.2686C54.7679 49.2733 54.661 49.5705 54.6338 49.7467C54.5663 50.1883 54.2841 50.479 53.8734 50.6177C53.0034 50.9131 52.123 50.8878 51.2483 50.6177C50.8563 50.4959 50.636 50.1902 50.5479 49.8039C50.3458 48.9351 50.3375 48.0324 50.5235 47.16C50.6379 46.6181 50.9923 46.2918 51.5286 46.1728C52.1853 46.0245 52.8662 46.0181 53.5256 46.154C54.1538 46.2834 54.4632 46.6912 54.586 47.3091C54.8344 48.5982 54.7969 48.6582 53.5256 48.6582H53.1037L53.1074 48.6592ZM52.5533 47.9326C52.7248 47.9415 52.8966 47.9415 53.0681 47.9326C53.2331 47.9138 53.4853 48.0329 53.5181 47.7451C53.5509 47.4572 53.5322 47.1459 53.2134 47.0269C52.8004 46.8652 52.3421 46.8622 51.927 47.0184C51.5886 47.1478 51.552 47.4825 51.582 47.7685C51.612 48.0544 51.9092 47.9016 52.0855 47.9316C52.2412 47.9441 52.3976 47.9445 52.5533 47.9326Z" fill="#333333"/>
<path d="M32.2418 48.4145C32.264 48.8514 32.2261 49.2892 32.1293 49.7158C32.0149 50.2615 31.6868 50.6009 31.1402 50.7134C30.4037 50.8646 29.6433 50.8556 28.9106 50.6871C28.4212 50.5774 28.1193 50.2821 28.0106 49.7852C27.815 48.8993 27.8114 47.9818 28.0002 47.0944C28.1043 46.5984 28.3996 46.2974 28.8928 46.1859C29.6567 46.0139 30.4491 46.011 31.2142 46.1774C31.7486 46.2909 32.043 46.6312 32.1518 47.1572C32.2346 47.5708 32.2648 47.9933 32.2418 48.4145ZM29.0147 48.4407C29.0269 48.6554 29.0344 48.8898 29.0559 49.1223C29.1084 49.6849 29.2894 49.8668 29.8491 49.8949C30.0367 49.9048 30.2247 49.9011 30.4117 49.8836C30.7633 49.8518 30.9742 49.6717 31.0426 49.3061C31.1268 48.829 31.1458 48.3426 31.0989 47.8604C31.0323 47.1384 30.8476 46.9791 30.1163 46.9706C29.2819 46.9612 29.0981 47.1272 29.0381 47.9541C29.025 48.1088 29.0222 48.2654 29.0147 48.4407Z" fill="#333333"/>
<path d="M56.6861 46.6847C57.3245 46.019 58.0155 45.9646 58.7487 46.1446C59.3056 46.2815 59.6506 46.6434 59.7116 47.2191C59.825 48.2926 59.7425 49.3708 59.7603 50.4462C59.7603 50.6637 59.6666 50.7584 59.4472 50.7481C59.3071 50.7373 59.1663 50.7373 59.0262 50.7481C58.7056 50.7809 58.5827 50.6543 58.5902 50.3252C58.609 49.5142 58.5977 48.7023 58.5949 47.8876C58.5949 47.176 58.4356 46.9856 57.8449 46.9669C57.1361 46.9444 56.732 47.2716 56.7198 47.9185C56.7029 48.6986 56.6861 49.4805 56.7264 50.2624C56.7508 50.7312 56.5257 50.7584 56.1638 50.7528C55.8019 50.7471 55.5394 50.7743 55.5563 50.2587C55.5938 49.0398 55.5685 47.821 55.5676 46.6069C55.5676 46.3509 55.5376 46.0659 55.9295 46.1259C56.2379 46.1756 56.7583 45.8774 56.6861 46.6847Z" fill="#333333"/>
<path d="M12.4695 48.4089C12.4873 48.1763 12.4939 47.9401 12.5248 47.7113C12.6852 46.5159 13.0302 46.1803 14.2237 46.0753C14.7526 46.0189 15.2874 46.0651 15.7988 46.2112C16.0747 46.3024 16.31 46.4872 16.4641 46.7336C16.6182 46.9799 16.6814 47.2724 16.6426 47.5604C16.6409 47.6141 16.6207 47.6655 16.5856 47.7062C16.5504 47.7468 16.5024 47.7741 16.4495 47.7835C16.0229 47.896 15.646 47.7469 15.4425 47.3672C15.2606 47.0278 14.7862 46.8872 14.2284 46.9969C13.8665 47.0682 13.7155 47.2941 13.678 47.6532C13.619 48.1794 13.619 48.7105 13.678 49.2367C13.7296 49.668 13.9593 49.8752 14.3803 49.893C14.5518 49.9015 14.7234 49.9015 14.8941 49.9015C15.2972 49.9015 15.5297 49.729 15.5738 49.3005C15.6375 48.6779 16.1251 49.0398 16.4176 48.9817C16.7279 48.9198 16.6942 49.1833 16.6886 49.3877C16.6689 50.208 16.3585 50.5774 15.5513 50.734C14.984 50.8454 14.401 50.8505 13.8318 50.749C13.0011 50.6028 12.687 50.2802 12.5567 49.4364C12.4975 49.0971 12.4683 48.7533 12.4695 48.4089Z" fill="#333333"/>
<path d="M60.9097 48.4707C60.9097 48.1585 60.9097 47.8463 60.9097 47.5332C60.9097 47.22 60.9631 46.9275 60.4803 46.9659C60.2168 46.9866 60.2853 46.7287 60.2928 46.5759C60.3003 46.4231 60.199 46.1334 60.4887 46.1399C60.9134 46.1493 60.9575 45.9056 60.9087 45.6008C60.8366 45.1189 61.1019 45.0861 61.4835 45.0796C61.8866 45.073 62.1191 45.1583 62.0404 45.6159C61.9663 46.0443 62.1745 46.1653 62.5701 46.1268C62.8514 46.0996 63.1326 46.139 63.4139 46.1174C63.758 46.0903 63.8283 46.2525 63.8321 46.56C63.8368 46.8844 63.7383 47.0091 63.4036 46.9866C63.0689 46.9641 62.7182 46.9922 62.3723 46.98C62.1332 46.9716 62.0357 47.0606 62.0395 47.3035C62.0488 47.9898 62.0394 48.6761 62.0498 49.3614C62.0544 49.6483 62.151 49.894 62.5007 49.8986C62.8345 49.8986 62.9536 49.6886 63.0033 49.3952C63.0689 49.007 63.5386 48.7886 63.8883 48.9695C63.9235 48.9861 63.9529 49.0128 63.9728 49.0462C63.9927 49.0796 64.0021 49.1182 63.9999 49.157C64.0074 49.563 64.0243 49.9755 63.7683 50.3262C63.4364 50.78 62.4557 50.9675 61.7216 50.7265C61.1703 50.5446 60.9247 50.1593 60.9134 49.4524C60.9059 49.1252 60.9106 48.7979 60.9097 48.4707Z" fill="#333333"/>
<path d="M34.8313 49.8067C35.1211 48.7088 35.3939 47.6503 35.6808 46.6021C35.7267 46.4324 35.6995 46.1727 35.9321 46.1474C36.2574 46.1191 36.5847 46.1242 36.909 46.1624C37.0271 46.1746 36.9662 46.3199 36.9427 46.4015C36.5565 47.7653 36.168 49.1295 35.7774 50.494C35.7286 50.6674 35.6311 50.763 35.4436 50.7462C35.3967 50.7434 35.3498 50.7434 35.3029 50.7462C33.951 50.7762 33.95 50.7762 33.5628 49.4861C33.2712 48.5157 32.9937 47.5397 32.6843 46.5749C32.5662 46.2065 32.6637 46.1062 33.0312 46.1174C33.9294 46.1371 33.7363 46.0762 33.9425 46.7859C34.2238 47.7441 34.4807 48.7079 34.7498 49.668C34.7724 49.7168 34.7997 49.7633 34.8313 49.8067Z" fill="#333333"/>
<path d="M10.4436 48.4351C10.4436 47.8116 10.453 47.1872 10.4436 46.5599C10.4371 46.2571 10.5102 46.1099 10.858 46.1099C11.6165 46.1099 11.6175 46.0912 11.6175 46.86V50.0964C11.6175 50.748 11.6175 50.748 11.0446 50.7527C10.4483 50.7527 10.4474 50.7527 10.4474 50.0767C10.4427 49.5273 10.4436 48.9817 10.4436 48.4351Z" fill="#333333"/>
<path d="M11.0107 45.1021C10.6797 45.1471 10.4303 45.1433 10.4275 44.6595C10.4247 44.1758 10.6375 44.1336 11.0173 44.1467C11.3632 44.1589 11.6323 44.1204 11.6323 44.6361C11.6323 45.1518 11.366 45.1396 11.0107 45.1021Z" fill="#333333"/>
</g>
<defs>
<clipPath id="clip0">
<rect width="64" height="41.7422" fill="white" transform="translate(0 11)"/>
</clipPath>
</defs>
</svg>
