<svg width="64" height="64" viewBox="0 0 64 64" fill="none" xmlns="http://www.w3.org/2000/svg">
<g clip-path="url(#clip0)">
<path fill-rule="evenodd" clip-rule="evenodd" d="M11.6307 22.698C10.0658 23.5867 9.45971 25.5163 6.87924 26.9117C4.24369 28.3367 2.87943 28.4966 1.9021 28.6017C4.34883 30.1441 6.36643 31.7519 9.62278 29.6602L18.4367 24.3634C16.8961 21.9889 14.0127 21.3456 11.6307 22.698Z" fill="#333333"/>
<path fill-rule="evenodd" clip-rule="evenodd" d="M2.55185 36.8098C4.10421 37.7206 6.07819 37.2807 8.57677 38.8177C11.1286 40.3876 11.9493 41.489 12.529 42.2829C12.6413 39.3928 13.025 36.8416 9.58521 35.0675L0.591105 30.0829C-0.695198 32.6044 0.189158 35.4233 2.55185 36.8098Z" fill="#333333"/>
<path fill-rule="evenodd" clip-rule="evenodd" d="M19.3134 37.5536C19.3492 35.7542 18.0014 34.2469 18.1215 31.316C18.2445 28.3224 18.8045 27.068 19.214 26.1743C16.6393 27.4885 14.224 28.4004 14.3567 32.2683L14.4017 42.5512C17.2304 42.4414 19.258 40.2922 19.3134 37.5536Z" fill="#333333"/>
<path fill-rule="evenodd" clip-rule="evenodd" d="M26.0003 40.5629C26.4709 40.7775 27.3481 41.1619 28.6316 41.1619C30.7926 41.1619 32.611 40.0709 32.611 37.4822V36.2413C32.6108 35.9468 32.6395 35.6529 32.6968 35.3641H32.6539C32.012 36.6693 30.8355 37.5455 29.06 37.5455C26.2785 37.5455 24.3099 35.3848 24.3099 31.9618C24.3099 28.6887 26.1073 26.592 28.9946 26.592C31.8818 26.592 32.6325 28.6905 32.6325 28.6905H32.6754C32.6292 28.56 32.6075 28.4222 32.6114 28.2839V27.2136C32.6114 26.9779 32.7397 26.8499 32.975 26.8499H33.1463C33.382 26.8499 33.51 26.9779 33.51 27.2136V37.4825C33.51 40.756 31.1566 42.0391 28.6323 42.0391C27.5833 42.0385 26.5467 41.8124 25.5927 41.3761C25.3574 41.2688 25.3144 41.0975 25.4217 40.8841L25.529 40.6917C25.6366 40.4989 25.7865 40.4556 26.0003 40.5629ZM32.6325 32.0698C32.6325 28.5825 30.9635 27.47 28.9949 27.47C26.599 27.47 25.2512 29.1389 25.2512 31.94C25.2512 34.9564 26.8343 36.6679 29.1233 36.6679C31.0064 36.6697 32.6325 35.4928 32.6325 32.0698Z" fill="#333333"/>
<path fill-rule="evenodd" clip-rule="evenodd" d="M36.1512 22.933C36.1512 22.6977 36.28 22.5693 36.5149 22.5693H36.6862C36.9215 22.5693 37.0496 22.6977 37.0496 22.933V35.0851C37.0496 36.5828 37.7773 36.7108 38.2908 36.7755C38.4832 36.7966 38.633 36.8606 38.633 37.1178V37.2458C38.633 37.4811 38.5472 37.6309 38.2475 37.6309C37.6274 37.6309 36.1512 37.3956 36.1512 35.3844V22.933Z" fill="#333333"/>
<path fill-rule="evenodd" clip-rule="evenodd" d="M45.2669 26.593C48.3262 26.593 50.8097 29.0104 50.8097 32.1337C50.8097 35.3214 48.3276 37.8036 45.2669 37.8036C42.2061 37.8036 39.724 35.3218 39.724 32.1337C39.7254 29.0104 42.2079 26.593 45.2669 26.593ZM45.2669 36.9278C47.8126 36.9278 49.8667 34.8537 49.8667 32.1359C49.8667 29.4832 47.8126 27.472 45.2669 27.472C42.7211 27.472 40.6674 29.4832 40.6674 32.1359C40.667 34.8508 42.7211 36.926 45.2669 36.926V36.9278Z" fill="#333333"/>
<path fill-rule="evenodd" clip-rule="evenodd" d="M45.2669 26.593C48.3262 26.593 50.8097 29.0104 50.8097 32.1337C50.8097 35.3214 48.3276 37.8036 45.2669 37.8036C42.2061 37.8036 39.724 35.3218 39.724 32.1337C39.7254 29.0104 42.2079 26.593 45.2669 26.593ZM45.2669 36.9278C47.8126 36.9278 49.8667 34.8537 49.8667 32.1359C49.8667 29.4832 47.8126 27.472 45.2669 27.472C42.7211 27.472 40.6674 29.4832 40.6674 32.1359C40.667 34.8508 42.7211 36.926 45.2669 36.926V36.9278Z" fill="#333333"/>
<path fill-rule="evenodd" clip-rule="evenodd" d="M58.3723 26.593C61.4316 26.593 63.9152 29.0104 63.9152 32.1337C63.9152 35.3214 61.4331 37.8036 58.3723 37.8036C55.3116 37.8036 52.8295 35.3218 52.8295 32.1337C52.8313 29.0104 55.3116 26.593 58.3723 26.593ZM58.3723 36.9278C60.9178 36.9278 62.9726 34.8537 62.9726 32.1359C62.9726 29.4832 60.9181 27.472 58.3723 27.472C55.8265 27.472 53.7739 29.481 53.7739 32.1337C53.7739 34.8508 55.8269 36.926 58.3723 36.926V36.9278Z" fill="#333333"/>
</g>
<defs>
<clipPath id="clip0">
<rect width="64" height="20.5622" fill="white" transform="translate(0 22)"/>
</clipPath>
</defs>
</svg>
