<svg width="64" height="64" viewBox="0 0 64 64" fill="none" xmlns="http://www.w3.org/2000/svg">
<path fill-rule="evenodd" clip-rule="evenodd" d="M14 32.0149C14 22.4627 21.3791 14.6433 30.7762 14L54 14.0584L49.3679 36.6192C49.2453 37.0861 46.3822 46.8133 36.7089 49.3787C35.2058 49.7847 33.6252 50 31.9943 50C26.7015 50 21.9365 47.7264 18.6166 44.1001C15.747 40.8992 14 36.662 14 32.0149ZM18.5186 31.9371C18.5186 39.4582 24.5842 45.5553 32.0665 45.5553C39.5489 45.5553 45.6145 39.4582 45.6145 31.9371C45.6145 24.416 39.5489 18.3189 32.0665 18.3189C24.5842 18.3189 18.5186 24.416 18.5186 31.9371ZM30.9799 20C29.3428 20.0222 27.7926 20.4208 26.4701 21.0847V21.0991C26.4173 23.6279 25.6963 25.9855 24.482 27.9877C23.3735 29.8147 21.8535 31.3451 20 32.5213C20.1548 34.1771 20.6468 35.7297 21.4722 37C24.3726 35.4291 26.8036 33.0506 28.4884 30.1532C30.084 27.3865 31 24.1494 31 20.69C31 20.447 30.995 20.2052 30.9799 20ZM36.9419 21.0908C35.5009 20.4246 33.8102 20.0248 32.0247 20C32.0055 20.2234 32 20.4847 32 20.7473C32 27.8213 36.22 33.9587 42.3943 37C43.2946 35.7289 43.8312 34.1769 44 32.523C39.8198 30.1598 37.0311 25.9441 36.9433 21.1026L36.9419 21.0908ZM25.3793 41.9747C25.386 41.9798 25.3928 41.9849 25.3996 41.99L25.3387 42C25.3522 41.9916 25.3657 41.9831 25.3793 41.9747ZM22 38.3007C22.9011 39.7266 24.0318 40.9631 25.3793 41.9747C27.3367 40.7601 29.5958 40.0667 32.0006 40.0667C34.4221 40.0667 36.6959 40.7697 38.6367 41.9314C39.9193 40.9569 41.0283 39.7252 42 38.3007C39.1134 36.2145 35.6607 35 31.9514 35C28.2421 35 24.7894 36.2145 22 38.3007Z" fill="#333333"/>
</svg>
