<svg width="64" height="64" viewBox="0 0 64 64" fill="none" xmlns="http://www.w3.org/2000/svg">
<mask id="path-1-inside-1" fill="white">
<path fill-rule="evenodd" clip-rule="evenodd" d="M2.66663 32C7.27996 20.2933 18.6666 12 32 12C45.3333 12 56.72 20.2933 61.3333 32C56.72 43.7067 45.3333 52 32 52C18.6666 52 7.27996 43.7067 2.66663 32ZM18.6666 32C18.6666 39.36 24.64 45.3333 32 45.3333C39.36 45.3333 45.3333 39.36 45.3333 32C45.3333 24.64 39.36 18.6667 32 18.6667C24.64 18.6667 18.6666 24.64 18.6666 32Z"/>
</mask>
<path fill-rule="evenodd" clip-rule="evenodd" d="M2.66663 32C7.27996 20.2933 18.6666 12 32 12C45.3333 12 56.72 20.2933 61.3333 32C56.72 43.7067 45.3333 52 32 52C18.6666 52 7.27996 43.7067 2.66663 32ZM18.6666 32C18.6666 39.36 24.64 45.3333 32 45.3333C39.36 45.3333 45.3333 39.36 45.3333 32C45.3333 24.64 39.36 18.6667 32 18.6667C24.64 18.6667 18.6666 24.64 18.6666 32Z" fill="#BDBDBD"/>
<path d="M2.66663 32L0.805897 31.2667L0.516931 32L0.805897 32.7333L2.66663 32ZM61.3333 32L63.194 32.7333L63.483 32L63.194 31.2667L61.3333 32ZM32 10C17.8145 10 5.70907 18.8246 0.805897 31.2667L4.52736 32.7333C8.85085 21.7621 19.5187 14 32 14V10ZM63.194 31.2667C58.2908 18.8246 46.1854 10 32 10V14C44.4812 14 55.1491 21.7621 59.4726 32.7333L63.194 31.2667ZM32 54C46.1854 54 58.2908 45.1754 63.194 32.7333L59.4726 31.2667C55.1491 42.2379 44.4812 50 32 50V54ZM0.805897 32.7333C5.70907 45.1754 17.8145 54 32 54V50C19.5187 50 8.85085 42.2379 4.52736 31.2667L0.805897 32.7333ZM32 43.3333C25.7445 43.3333 20.6666 38.2554 20.6666 32H16.6666C16.6666 40.4646 23.5354 47.3333 32 47.3333V43.3333ZM43.3333 32C43.3333 38.2554 38.2554 43.3333 32 43.3333V47.3333C40.4645 47.3333 47.3333 40.4646 47.3333 32H43.3333ZM32 20.6667C38.2554 20.6667 43.3333 25.7446 43.3333 32H47.3333C47.3333 23.5354 40.4645 16.6667 32 16.6667V20.6667ZM20.6666 32C20.6666 25.7446 25.7445 20.6667 32 20.6667V16.6667C23.5354 16.6667 16.6666 23.5354 16.6666 32H20.6666Z" fill="#333333" mask="url(#path-1-inside-1)"/>
<rect x="13" y="32" width="26.8701" height="26.8701" rx="13.4351" transform="rotate(-45 13 32)" fill="#BDBDBD"/>
<path fill-rule="evenodd" clip-rule="evenodd" d="M39.125 40.7083C34.7154 44.3263 28.2079 44.0413 24.0833 39.9167C19.9587 35.7921 19.6737 29.2846 23.2916 24.875L39.125 40.7083ZM24.8987 23.2679L32.0158 30.385L39.1171 23.2837C34.9925 19.9033 29.0154 19.8954 24.8987 23.2679ZM40.7321 39.1013L33.6151 31.9842L40.7163 24.8829C44.0967 29.0075 44.1126 34.9767 40.7321 39.1013Z" fill="#333333"/>
</svg>
